<svg xmlns="http://www.w3.org/2000/svg" width="21.781" height="14.27" viewBox="0 0 21.781 14.27">
  <g id="usa" style="mix-blend-mode: luminosity;isolation: isolate">
    <path id="Path_18" data-name="Path 18" d="M21.405,102.546H.376A.376.376,0,0,1,0,102.171V88.652a.376.376,0,0,1,.376-.376h21.03a.376.376,0,0,1,.376.376v13.519A.376.376,0,0,1,21.405,102.546Z" transform="translate(0 -88.276)" fill="#f5f5f5"/>
    <g id="Group_1" data-name="Group 1" transform="translate(0 0)">
      <path id="Path_19" data-name="Path 19" d="M21.781,89.374H0v-.722a.376.376,0,0,1,.376-.376h21.03a.376.376,0,0,1,.376.376v.722Z" transform="translate(0 -88.276)" fill="#ff4b55"/>
      <rect id="Rectangle_1" data-name="Rectangle 1" width="21.781" height="1.098" transform="translate(0 4.391)" fill="#ff4b55"/>
      <rect id="Rectangle_2" data-name="Rectangle 2" width="21.781" height="1.098" transform="translate(0 2.195)" fill="#ff4b55"/>
      <path id="Path_20" data-name="Path 20" d="M21.781,244.2H.376A.376.376,0,0,1,0,243.82V243.1H21.781Z" transform="translate(0 -236.512)" fill="#ff4b55"/>
      <rect id="Rectangle_3" data-name="Rectangle 3" width="21.781" height="1.098" transform="translate(0 10.977)" fill="#ff4b55"/>
      <path id="Path_21" data-name="Path 21" d="M21.405,399.019H.376A.376.376,0,0,1,0,398.643v-.722H21.781v.722A.376.376,0,0,1,21.405,399.019Z" transform="translate(0 -384.749)" fill="#ff4b55"/>
      <rect id="Rectangle_4" data-name="Rectangle 4" width="21.781" height="1.098" transform="translate(0 8.782)" fill="#ff4b55"/>
    </g>
    <path id="Path_22" data-name="Path 22" d="M9.764,88.277H.376A.376.376,0,0,0,0,88.653v6.933a.376.376,0,0,0,.376.376H9.764a.376.376,0,0,0,.376-.376V88.653A.376.376,0,0,0,9.764,88.277Z" transform="translate(0 -88.277)" fill="#41479b"/>
    <g id="Group_2" data-name="Group 2" transform="translate(0.606 0.838)">
      <path id="Path_23" data-name="Path 23" d="M14.7,107.993l.083.249.263,0a.035.035,0,0,1,.021.064l-.211.156.079.251a.035.035,0,0,1-.054.039l-.214-.153-.214.153a.035.035,0,0,1-.054-.039l.079-.251-.211-.156a.035.035,0,0,1,.021-.064l.263,0,.083-.249A.035.035,0,0,1,14.7,107.993Z" transform="translate(-14.253 -107.969)" fill="#f5f5f5"/>
      <path id="Path_24" data-name="Path 24" d="M14.7,138.648l.083.249.263,0a.035.035,0,0,1,.021.064l-.211.156.079.251a.035.035,0,0,1-.054.039l-.214-.153-.214.153a.035.035,0,0,1-.054-.039l.079-.251-.211-.156a.035.035,0,0,1,.021-.064l.263,0,.083-.249A.035.035,0,0,1,14.7,138.648Z" transform="translate(-14.253 -137.32)" fill="#f5f5f5"/>
      <path id="Path_25" data-name="Path 25" d="M14.7,169.3l.083.249.263,0a.035.035,0,0,1,.021.064l-.211.156.079.251a.035.035,0,0,1-.054.039l-.214-.153-.214.153a.035.035,0,0,1-.054-.039l.079-.251-.211-.156a.035.035,0,0,1,.021-.064l.263,0,.083-.249A.035.035,0,0,1,14.7,169.3Z" transform="translate(-14.253 -166.67)" fill="#f5f5f5"/>
      <path id="Path_26" data-name="Path 26" d="M14.7,199.956l.083.249.263,0a.035.035,0,0,1,.021.064l-.211.156.079.251a.035.035,0,0,1-.054.039l-.214-.153-.214.153a.035.035,0,0,1-.054-.039l.079-.251-.211-.156a.035.035,0,0,1,.021-.064l.263,0,.083-.249A.035.035,0,0,1,14.7,199.956Z" transform="translate(-14.253 -196.02)" fill="#f5f5f5"/>
      <path id="Path_27" data-name="Path 27" d="M14.7,230.609l.083.249.263,0a.035.035,0,0,1,.021.064l-.211.156.079.251a.035.035,0,0,1-.054.039l-.214-.153-.214.153a.035.035,0,0,1-.054-.039l.079-.251-.211-.156a.035.035,0,0,1,.021-.064l.263,0,.083-.249A.035.035,0,0,1,14.7,230.609Z" transform="translate(-14.253 -225.369)" fill="#f5f5f5"/>
      <path id="Path_28" data-name="Path 28" d="M38.494,123.023l.083.249.263,0a.035.035,0,0,1,.021.064l-.211.156.079.251a.035.035,0,0,1-.054.039l-.214-.153-.214.153a.035.035,0,0,1-.054-.039l.079-.251-.211-.156a.035.035,0,0,1,.021-.064l.263,0,.083-.249A.035.035,0,0,1,38.494,123.023Z" transform="translate(-37.033 -122.359)" fill="#f5f5f5"/>
      <path id="Path_29" data-name="Path 29" d="M38.494,153.677l.083.249.263,0a.035.035,0,0,1,.021.064l-.211.156.079.251a.035.035,0,0,1-.054.039l-.214-.153-.214.153a.035.035,0,0,1-.054-.039l.079-.251-.211-.156a.035.035,0,0,1,.021-.064l.263,0,.083-.249A.035.035,0,0,1,38.494,153.677Z" transform="translate(-37.033 -151.709)" fill="#f5f5f5"/>
      <path id="Path_30" data-name="Path 30" d="M38.494,184.331l.083.249.263,0a.035.035,0,0,1,.021.064l-.211.156.079.251a.035.035,0,0,1-.054.039l-.214-.153-.214.153a.035.035,0,0,1-.054-.039l.079-.251-.211-.156a.035.035,0,0,1,.021-.064l.263,0,.083-.249A.035.035,0,0,1,38.494,184.331Z" transform="translate(-37.033 -181.059)" fill="#f5f5f5"/>
      <path id="Path_31" data-name="Path 31" d="M38.494,214.986l.083.249.263,0a.035.035,0,0,1,.021.064l-.211.156.079.251a.035.035,0,0,1-.054.039l-.214-.153-.214.153a.035.035,0,0,1-.054-.039l.079-.251-.211-.156a.035.035,0,0,1,.021-.064l.263,0,.083-.249A.035.035,0,0,1,38.494,214.986Z" transform="translate(-37.033 -210.41)" fill="#f5f5f5"/>
      <path id="Path_32" data-name="Path 32" d="M62.287,107.993l.083.249.263,0a.035.035,0,0,1,.021.064l-.211.156.079.251a.035.035,0,0,1-.054.039l-.214-.153-.214.153a.035.035,0,0,1-.054-.039l.079-.251-.211-.156a.035.035,0,0,1,.021-.064l.263,0,.083-.249A.035.035,0,0,1,62.287,107.993Z" transform="translate(-59.814 -107.969)" fill="#f5f5f5"/>
      <path id="Path_33" data-name="Path 33" d="M62.287,138.648l.083.249.263,0a.035.035,0,0,1,.021.064l-.211.156.079.251a.035.035,0,0,1-.054.039l-.214-.153-.214.153a.035.035,0,0,1-.054-.039l.079-.251-.211-.156a.035.035,0,0,1,.021-.064l.263,0,.083-.249A.035.035,0,0,1,62.287,138.648Z" transform="translate(-59.814 -137.319)" fill="#f5f5f5"/>
      <path id="Path_34" data-name="Path 34" d="M62.287,169.3l.083.249.263,0a.035.035,0,0,1,.021.064l-.211.156.079.251a.035.035,0,0,1-.054.039l-.214-.153-.214.153a.035.035,0,0,1-.054-.039l.079-.251-.211-.156a.035.035,0,0,1,.021-.064l.263,0,.083-.249A.035.035,0,0,1,62.287,169.3Z" transform="translate(-59.814 -166.669)" fill="#f5f5f5"/>
      <path id="Path_35" data-name="Path 35" d="M62.287,199.956l.083.249.263,0a.035.035,0,0,1,.021.064l-.211.156.079.251a.035.035,0,0,1-.054.039l-.214-.153-.214.153a.035.035,0,0,1-.054-.039l.079-.251-.211-.156a.035.035,0,0,1,.021-.064l.263,0,.083-.249A.035.035,0,0,1,62.287,199.956Z" transform="translate(-59.814 -196.02)" fill="#f5f5f5"/>
      <path id="Path_36" data-name="Path 36" d="M62.287,230.609l.083.249.263,0a.035.035,0,0,1,.021.064l-.211.156.079.251a.035.035,0,0,1-.054.039l-.214-.153-.214.153a.035.035,0,0,1-.054-.039l.079-.251-.211-.156a.035.035,0,0,1,.021-.064l.263,0,.083-.249A.035.035,0,0,1,62.287,230.609Z" transform="translate(-59.814 -225.369)" fill="#f5f5f5"/>
      <path id="Path_37" data-name="Path 37" d="M86.081,123.023l.083.249.263,0a.035.035,0,0,1,.021.064l-.211.156.079.251a.035.035,0,0,1-.054.039l-.214-.153-.214.153a.035.035,0,0,1-.054-.039l.079-.251-.211-.156a.035.035,0,0,1,.021-.064l.263,0,.083-.249A.035.035,0,0,1,86.081,123.023Z" transform="translate(-82.596 -122.359)" fill="#f5f5f5"/>
      <path id="Path_38" data-name="Path 38" d="M86.081,153.677l.083.249.263,0a.035.035,0,0,1,.021.064l-.211.156.079.251a.035.035,0,0,1-.054.039l-.214-.153-.214.153a.035.035,0,0,1-.054-.039l.079-.251-.211-.156a.035.035,0,0,1,.021-.064l.263,0,.083-.249A.035.035,0,0,1,86.081,153.677Z" transform="translate(-82.596 -151.709)" fill="#f5f5f5"/>
      <path id="Path_39" data-name="Path 39" d="M86.081,184.331l.083.249.263,0a.035.035,0,0,1,.021.064l-.211.156.079.251a.035.035,0,0,1-.054.039l-.214-.153-.214.153a.035.035,0,0,1-.054-.039l.079-.251-.211-.156a.035.035,0,0,1,.021-.064l.263,0,.083-.249A.035.035,0,0,1,86.081,184.331Z" transform="translate(-82.596 -181.059)" fill="#f5f5f5"/>
      <path id="Path_40" data-name="Path 40" d="M86.081,214.986l.083.249.263,0a.035.035,0,0,1,.021.064l-.211.156.079.251a.035.035,0,0,1-.054.039l-.214-.153-.214.153a.035.035,0,0,1-.054-.039l.079-.251-.211-.156a.035.035,0,0,1,.021-.064l.263,0,.083-.249A.035.035,0,0,1,86.081,214.986Z" transform="translate(-82.596 -210.41)" fill="#f5f5f5"/>
      <path id="Path_41" data-name="Path 41" d="M109.873,107.993l.083.249.263,0a.035.035,0,0,1,.021.064l-.211.156.079.251a.035.035,0,0,1-.054.039l-.214-.153-.214.153a.035.035,0,0,1-.054-.039l.079-.251-.211-.156a.035.035,0,0,1,.021-.064l.263,0,.083-.249A.035.035,0,0,1,109.873,107.993Z" transform="translate(-105.376 -107.969)" fill="#f5f5f5"/>
      <path id="Path_42" data-name="Path 42" d="M109.873,138.648l.083.249.263,0a.035.035,0,0,1,.021.064l-.211.156.079.251a.035.035,0,0,1-.054.039l-.214-.153-.214.153a.035.035,0,0,1-.054-.039l.079-.251-.211-.156a.035.035,0,0,1,.021-.064l.263,0,.083-.249A.035.035,0,0,1,109.873,138.648Z" transform="translate(-105.376 -137.319)" fill="#f5f5f5"/>
      <path id="Path_43" data-name="Path 43" d="M109.873,169.3l.083.249.263,0a.035.035,0,0,1,.021.064l-.211.156.079.251a.035.035,0,0,1-.054.039l-.214-.153-.214.153a.035.035,0,0,1-.054-.039l.079-.251-.211-.156a.035.035,0,0,1,.021-.064l.263,0,.083-.249A.035.035,0,0,1,109.873,169.3Z" transform="translate(-105.376 -166.669)" fill="#f5f5f5"/>
      <path id="Path_44" data-name="Path 44" d="M109.873,199.956l.083.249.263,0a.035.035,0,0,1,.021.064l-.211.156.079.251a.035.035,0,0,1-.054.039l-.214-.153-.214.153a.035.035,0,0,1-.054-.039l.079-.251-.211-.156a.035.035,0,0,1,.021-.064l.263,0,.083-.249A.035.035,0,0,1,109.873,199.956Z" transform="translate(-105.376 -196.02)" fill="#f5f5f5"/>
      <path id="Path_45" data-name="Path 45" d="M109.873,230.609l.083.249.263,0a.035.035,0,0,1,.021.064l-.211.156.079.251a.035.035,0,0,1-.054.039l-.214-.153-.214.153a.035.035,0,0,1-.054-.039l.079-.251-.211-.156a.035.035,0,0,1,.021-.064l.263,0,.083-.249A.035.035,0,0,1,109.873,230.609Z" transform="translate(-105.376 -225.369)" fill="#f5f5f5"/>
      <path id="Path_46" data-name="Path 46" d="M133.667,123.023l.083.249.263,0a.035.035,0,0,1,.021.064l-.211.156.079.251a.035.035,0,0,1-.054.039l-.214-.153-.214.153a.035.035,0,0,1-.054-.039l.079-.251-.211-.156a.035.035,0,0,1,.021-.064l.263,0,.083-.249A.035.035,0,0,1,133.667,123.023Z" transform="translate(-128.158 -122.359)" fill="#f5f5f5"/>
      <path id="Path_47" data-name="Path 47" d="M133.667,153.677l.083.249.263,0a.035.035,0,0,1,.021.064l-.211.156.079.251a.035.035,0,0,1-.054.039l-.214-.153-.214.153a.035.035,0,0,1-.054-.039l.079-.251-.211-.156a.035.035,0,0,1,.021-.064l.263,0,.083-.249A.035.035,0,0,1,133.667,153.677Z" transform="translate(-128.158 -151.709)" fill="#f5f5f5"/>
      <path id="Path_48" data-name="Path 48" d="M133.667,184.331l.083.249.263,0a.035.035,0,0,1,.021.064l-.211.156.079.251a.035.035,0,0,1-.054.039l-.214-.153-.214.153a.035.035,0,0,1-.054-.039l.079-.251-.211-.156a.035.035,0,0,1,.021-.064l.263,0,.083-.249A.035.035,0,0,1,133.667,184.331Z" transform="translate(-128.158 -181.059)" fill="#f5f5f5"/>
      <path id="Path_49" data-name="Path 49" d="M133.667,214.986l.083.249.263,0a.035.035,0,0,1,.021.064l-.211.156.079.251a.035.035,0,0,1-.054.039l-.214-.153-.214.153a.035.035,0,0,1-.054-.039l.079-.251-.211-.156a.035.035,0,0,1,.021-.064l.263,0,.083-.249A.035.035,0,0,1,133.667,214.986Z" transform="translate(-128.158 -210.41)" fill="#f5f5f5"/>
      <path id="Path_50" data-name="Path 50" d="M157.461,107.993l.083.249.263,0a.035.035,0,0,1,.021.064l-.211.156.079.251a.035.035,0,0,1-.054.039l-.214-.153-.214.153a.035.035,0,0,1-.054-.039l.079-.251-.211-.156a.035.035,0,0,1,.021-.064l.263,0,.083-.249A.035.035,0,0,1,157.461,107.993Z" transform="translate(-150.94 -107.969)" fill="#f5f5f5"/>
      <path id="Path_51" data-name="Path 51" d="M157.461,138.648l.083.249.263,0a.035.035,0,0,1,.021.064l-.211.156.079.251a.035.035,0,0,1-.054.039l-.214-.153-.214.153a.035.035,0,0,1-.054-.039l.079-.251-.211-.156a.035.035,0,0,1,.021-.064l.263,0,.083-.249A.035.035,0,0,1,157.461,138.648Z" transform="translate(-150.94 -137.319)" fill="#f5f5f5"/>
      <path id="Path_52" data-name="Path 52" d="M157.461,169.3l.083.249.263,0a.035.035,0,0,1,.021.064l-.211.156.079.251a.035.035,0,0,1-.054.039l-.214-.153-.214.153a.035.035,0,0,1-.054-.039l.079-.251-.211-.156a.035.035,0,0,1,.021-.064l.263,0,.083-.249A.035.035,0,0,1,157.461,169.3Z" transform="translate(-150.94 -166.669)" fill="#f5f5f5"/>
      <path id="Path_53" data-name="Path 53" d="M157.461,199.956l.083.249.263,0a.035.035,0,0,1,.021.064l-.211.156.079.251a.035.035,0,0,1-.054.039l-.214-.153-.214.153a.035.035,0,0,1-.054-.039l.079-.251-.211-.156a.035.035,0,0,1,.021-.064l.263,0,.083-.249A.035.035,0,0,1,157.461,199.956Z" transform="translate(-150.94 -196.02)" fill="#f5f5f5"/>
      <path id="Path_54" data-name="Path 54" d="M157.461,230.609l.083.249.263,0a.035.035,0,0,1,.021.064l-.211.156.079.251a.035.035,0,0,1-.054.039l-.214-.153-.214.153a.035.035,0,0,1-.054-.039l.079-.251-.211-.156a.035.035,0,0,1,.021-.064l.263,0,.083-.249A.035.035,0,0,1,157.461,230.609Z" transform="translate(-150.94 -225.369)" fill="#f5f5f5"/>
      <path id="Path_55" data-name="Path 55" d="M181.254,123.023l.083.249.263,0a.035.035,0,0,1,.021.064l-.211.156.079.251a.035.035,0,0,1-.054.039l-.214-.153-.214.153a.035.035,0,0,1-.054-.039l.079-.251-.211-.156a.035.035,0,0,1,.021-.064l.263,0,.083-.249A.035.035,0,0,1,181.254,123.023Z" transform="translate(-173.72 -122.359)" fill="#f5f5f5"/>
      <path id="Path_56" data-name="Path 56" d="M181.254,153.677l.083.249.263,0a.035.035,0,0,1,.021.064l-.211.156.079.251a.035.035,0,0,1-.054.039l-.214-.153-.214.153a.035.035,0,0,1-.054-.039l.079-.251-.211-.156a.035.035,0,0,1,.021-.064l.263,0,.083-.249A.035.035,0,0,1,181.254,153.677Z" transform="translate(-173.72 -151.709)" fill="#f5f5f5"/>
      <path id="Path_57" data-name="Path 57" d="M181.254,184.331l.083.249.263,0a.035.035,0,0,1,.021.064l-.211.156.079.251a.035.035,0,0,1-.054.039l-.214-.153-.214.153a.035.035,0,0,1-.054-.039l.079-.251-.211-.156a.035.035,0,0,1,.021-.064l.263,0,.083-.249A.035.035,0,0,1,181.254,184.331Z" transform="translate(-173.72 -181.059)" fill="#f5f5f5"/>
      <path id="Path_58" data-name="Path 58" d="M181.254,214.986l.083.249.263,0a.035.035,0,0,1,.021.064l-.211.156.079.251a.035.035,0,0,1-.054.039l-.214-.153-.214.153a.035.035,0,0,1-.054-.039l.079-.251-.211-.156a.035.035,0,0,1,.021-.064l.263,0,.083-.249A.035.035,0,0,1,181.254,214.986Z" transform="translate(-173.72 -210.41)" fill="#f5f5f5"/>
      <path id="Path_59" data-name="Path 59" d="M205.048,107.993l.083.249.263,0a.035.035,0,0,1,.021.064l-.211.156.079.251a.035.035,0,0,1-.054.039l-.214-.153-.214.153a.035.035,0,0,1-.054-.039l.079-.251-.211-.156a.035.035,0,0,1,.021-.064l.263,0,.083-.249A.035.035,0,0,1,205.048,107.993Z" transform="translate(-196.502 -107.969)" fill="#f5f5f5"/>
      <path id="Path_60" data-name="Path 60" d="M205.048,138.648l.083.249.263,0a.035.035,0,0,1,.021.064l-.211.156.079.251a.035.035,0,0,1-.054.039l-.214-.153-.214.153a.035.035,0,0,1-.054-.039l.079-.251-.211-.156a.035.035,0,0,1,.021-.064l.263,0,.083-.249A.035.035,0,0,1,205.048,138.648Z" transform="translate(-196.502 -137.319)" fill="#f5f5f5"/>
      <path id="Path_61" data-name="Path 61" d="M205.048,169.3l.083.249.263,0a.035.035,0,0,1,.021.064l-.211.156.079.251a.035.035,0,0,1-.054.039l-.214-.153-.214.153a.035.035,0,0,1-.054-.039l.079-.251-.211-.156a.035.035,0,0,1,.021-.064l.263,0,.083-.249A.035.035,0,0,1,205.048,169.3Z" transform="translate(-196.502 -166.669)" fill="#f5f5f5"/>
      <path id="Path_62" data-name="Path 62" d="M205.048,199.956l.083.249.263,0a.035.035,0,0,1,.021.064l-.211.156.079.251a.035.035,0,0,1-.054.039l-.214-.153-.214.153a.035.035,0,0,1-.054-.039l.079-.251-.211-.156a.035.035,0,0,1,.021-.064l.263,0,.083-.249A.035.035,0,0,1,205.048,199.956Z" transform="translate(-196.502 -196.02)" fill="#f5f5f5"/>
      <path id="Path_63" data-name="Path 63" d="M205.048,230.609l.083.249.263,0a.035.035,0,0,1,.021.064l-.211.156.079.251a.035.035,0,0,1-.054.039l-.214-.153-.214.153a.035.035,0,0,1-.054-.039l.079-.251-.211-.156a.035.035,0,0,1,.021-.064l.263,0,.083-.249A.035.035,0,0,1,205.048,230.609Z" transform="translate(-196.502 -225.369)" fill="#f5f5f5"/>
    </g>
  </g>
</svg>
