<svg xmlns="http://www.w3.org/2000/svg" width="23" height="12.136" viewBox="0 0 23 12.136">
  <g id="UK" transform="translate(0 0)">
    <rect id="Rectangle_459" data-name="Rectangle 459" width="22.994" height="12.115" transform="translate(0 0.001)" fill="#fff"/>
    <path id="Path_371" data-name="Path 371" d="M10.932.161V5.008H.834V7.43h10.1v4.845H13.7V7.43H23.82V5.008H13.7V.161Z" transform="translate(-0.824 -0.159)" fill="#ce1124"/>
    <path id="Path_372" data-name="Path 372" d="M.019,124.792H5.034L.019,122.154Z" transform="translate(-0.019 -120.742)" fill="#00247d"/>
    <path id="Path_373" data-name="Path 373" d="M233.133.049l-.073,0,6.5,3.438V.049Z" transform="translate(-230.365 -0.049)" fill="#00247d"/>
    <path id="Path_374" data-name="Path 374" d="M.019,1.055,5.9,4.136H7.737L.019.1Z" transform="translate(-0.019 -0.104)" fill="#ce1124"/>
    <path id="Path_375" data-name="Path 375" d="M1322.213,699.36l7.718,4.032v-.95l-5.879-3.081Z" transform="translate(-1306.931 -691.277)" fill="#ce1124"/>
    <path id="Path_376" data-name="Path 376" d="M.019,699.673v2.638l5.015-2.638Z" transform="translate(-0.019 -691.587)" fill="#00247d"/>
    <path id="Path_377" data-name="Path 377" d="M233.06,755.66l.073,0h6.43v-3.442Z" transform="translate(-230.366 -743.527)" fill="#00247d"/>
    <path id="Path_378" data-name="Path 378" d="M8.129,699.336l-7.673,4.03,1.795,0,7.4-3.868v-.164Z" transform="translate(-0.45 -691.253)" fill="#ce1124"/>
    <path id="Path_379" data-name="Path 379" d="M1556.068,124.741h5.015V122.1Z" transform="translate(-1538.084 -120.693)" fill="#00247d"/>
    <path id="Path_380" data-name="Path 380" d="M1194.3,0V3.441l6.5-3.438-.073,0Z" transform="translate(-1180.499)" fill="#00247d"/>
    <path id="Path_381" data-name="Path 381" d="M1194.873,4.371v.137h1.578l7.6-4.032h-1.726Z" transform="translate(-1181.063 -0.471)" fill="#ce1124"/>
    <path id="Path_382" data-name="Path 382" d="M1556.068,699.588l5.015,2.638v-2.638Z" transform="translate(-1538.084 -691.502)" fill="#00247d"/>
    <path id="Path_383" data-name="Path 383" d="M1194.3,755.575h6.43l.073,0-6.5-3.438Z" transform="translate(-1180.499 -743.441)" fill="#00247d"/>
  </g>
</svg>
