<svg xmlns="http://www.w3.org/2000/svg" width="52" height="65.95" viewBox="0 0 52 65.95">
  <g id="calendar" transform="translate(-233.157 -810.14)">
    <g id="Group_384" data-name="Group 384">
      <ellipse id="Ellipse_189" data-name="Ellipse 189" cx="26" cy="26" rx="26" ry="26" transform="translate(233.157 810.14)" fill="#e2ff00"/>
      <g id="Group_342" data-name="Group 342" transform="translate(242.012 824)">
        <g id="Group_315" data-name="Group 315" transform="translate(5.988 0)">
          <path id="Path_326" data-name="Path 326" d="M9.11,23.546H25.54a3.125,3.125,0,0,0,3.122-3.122V4.866A3.125,3.125,0,0,0,25.54,1.744H24.3V.872a.872.872,0,0,0-1.744,0v.872H12.093V.872a.872.872,0,0,0-1.744,0v.872H9.11A3.125,3.125,0,0,0,5.988,4.866V20.424A3.125,3.125,0,0,0,9.11,23.546ZM7.732,4.866A1.381,1.381,0,0,1,9.11,3.488h1.238V4.36a.872.872,0,0,0,1.744,0V3.488H22.558V4.36a.872.872,0,0,0,1.744,0V3.488H25.54a1.381,1.381,0,0,1,1.378,1.378V7.413H7.732Z" transform="translate(-5.988 0)" stroke="#000" stroke-width="0.3"/>
        </g>
      </g>
    </g>
    <path id="Path_349" data-name="Path 349" d="M-17.136.09a3.2,3.2,0,0,0,2.5-1.053l-.756-.72a2.19,2.19,0,0,1-1.683.747,2.151,2.151,0,0,1-2.25-2.214,2.151,2.151,0,0,1,2.25-2.214,2.212,2.212,0,0,1,1.683.738l.756-.711A3.191,3.191,0,0,0-17.127-6.39,3.211,3.211,0,0,0-20.5-3.15,3.208,3.208,0,0,0-17.136.09Zm5.31-4.95a3.379,3.379,0,0,0-2.034.594l.441.819a2.379,2.379,0,0,1,1.458-.477c.8,0,1.2.387,1.2,1.044v.072h-1.242c-1.458,0-2,.63-2,1.431,0,.837.693,1.44,1.791,1.44A1.7,1.7,0,0,0-10.7-.585V0h1.062V-2.817C-9.639-4.2-10.44-4.86-11.826-4.86Zm-.153,4.1c-.576,0-.918-.261-.918-.666,0-.351.207-.639.972-.639h1.161V-1.5A1.225,1.225,0,0,1-11.979-.756ZM-8.2,0h1.125V-6.678H-8.2ZM-1.08-2.376A2.344,2.344,0,0,0-3.51-4.86,2.39,2.39,0,0,0-5.994-2.4,2.44,2.44,0,0,0-3.339.063,2.436,2.436,0,0,0-1.4-.72l-.6-.693a1.722,1.722,0,0,1-1.305.522A1.455,1.455,0,0,1-4.869-2.043H-1.1C-1.089-2.151-1.08-2.286-1.08-2.376ZM-3.51-3.96A1.308,1.308,0,0,1-2.151-2.79H-4.878A1.328,1.328,0,0,1-3.51-3.96Zm6.237-.9a2.09,2.09,0,0,0-1.656.675v-.621H0V0H1.125V-2.43A1.276,1.276,0,0,1,2.466-3.879c.72,0,1.143.414,1.143,1.269V0H4.734V-2.754A1.878,1.878,0,0,0,2.727-4.86ZM9.792-6.678v2.466A1.968,1.968,0,0,0,8.244-4.86,2.332,2.332,0,0,0,5.814-2.4,2.339,2.339,0,0,0,8.244.063,1.982,1.982,0,0,0,9.837-.621V0h1.08V-6.678ZM8.379-.9A1.4,1.4,0,0,1,6.948-2.4a1.4,1.4,0,0,1,1.431-1.5A1.4,1.4,0,0,1,9.81-2.4,1.4,1.4,0,0,1,8.379-.9Zm5.85-3.96a3.379,3.379,0,0,0-2.034.594l.441.819a2.379,2.379,0,0,1,1.458-.477c.8,0,1.2.387,1.2,1.044v.072H14.049c-1.458,0-2,.63-2,1.431,0,.837.693,1.44,1.791,1.44a1.7,1.7,0,0,0,1.512-.648V0h1.062V-2.817C16.416-4.2,15.615-4.86,14.229-4.86Zm-.153,4.1c-.576,0-.918-.261-.918-.666,0-.351.207-.639.972-.639h1.161V-1.5A1.225,1.225,0,0,1,14.076-.756ZM18.927-4.1v-.7H17.856V0h1.125V-2.331a1.31,1.31,0,0,1,1.395-1.485,1.428,1.428,0,0,1,.261.027V-4.86A1.891,1.891,0,0,0,18.927-4.1Z" transform="translate(259 876)" fill="#e7fe55"/>
  </g>
</svg>
