<svg xmlns="http://www.w3.org/2000/svg" width="52" height="66.203" viewBox="0 0 52 66.203">
  <g id="home" transform="translate(1525 -1178)">
    <circle id="Ellipse_164" data-name="Ellipse 164" cx="26" cy="26" r="26" transform="translate(-1525 1178)" fill="#e2ff00"/>
    <path id="Path" d="M7.148,20.224V16.931a1.529,1.529,0,0,1,1.534-1.523h3.1a1.54,1.54,0,0,1,1.085.446,1.518,1.518,0,0,1,.449,1.077v3.293a1.306,1.306,0,0,0,.384.934,1.328,1.328,0,0,0,.938.388h2.113a3.73,3.73,0,0,0,2.632-1.076,3.674,3.674,0,0,0,1.091-2.61V8.475A2.662,2.662,0,0,0,19.5,6.426L12.318.728A3.338,3.338,0,0,0,8.064.8L1.042,6.426A2.665,2.665,0,0,0,0,8.475V17.85a3.71,3.71,0,0,0,3.723,3.7H5.788a1.327,1.327,0,0,0,1.331-1.312Z" transform="translate(-1509.424 1193)"/>
    <path id="Path_348" data-name="Path 348" d="M5.274-6.3v2.6H2.016V-6.3H.846V0h1.17V-2.7H5.274V0h1.17V-6.3ZM10.188.063A2.424,2.424,0,0,0,12.753-2.4,2.417,2.417,0,0,0,10.188-4.86,2.419,2.419,0,0,0,7.632-2.4,2.426,2.426,0,0,0,10.188.063Zm0-.963A1.4,1.4,0,0,1,8.766-2.4a1.4,1.4,0,0,1,1.422-1.5,1.4,1.4,0,0,1,1.431,1.5A1.4,1.4,0,0,1,10.188-.9ZM19.9-4.86a2.243,2.243,0,0,0-1.8.8,1.8,1.8,0,0,0-1.62-.8,1.991,1.991,0,0,0-1.575.666v-.612H13.833V0h1.125V-2.439c0-.954.5-1.44,1.251-1.44.684,0,1.08.414,1.08,1.269V0h1.125V-2.439c0-.954.513-1.44,1.251-1.44.684,0,1.08.414,1.08,1.269V0H21.87V-2.754A1.849,1.849,0,0,0,19.9-4.86Zm7.974,2.484a2.344,2.344,0,0,0-2.43-2.484A2.39,2.39,0,0,0,22.959-2.4,2.44,2.44,0,0,0,25.614.063,2.436,2.436,0,0,0,27.549-.72l-.6-.693a1.722,1.722,0,0,1-1.305.522,1.455,1.455,0,0,1-1.557-1.152h3.771C27.864-2.151,27.873-2.286,27.873-2.376ZM25.443-3.96A1.308,1.308,0,0,1,26.8-2.79H24.075A1.328,1.328,0,0,1,25.443-3.96Z" transform="translate(-1514 1244.14)" fill="#e7fe55"/>
  </g>
</svg>
