<svg xmlns="http://www.w3.org/2000/svg" width="22.594" height="11.921" viewBox="0 0 22.594 11.921">
  <g id="Australia" transform="translate(0 0)">
    <rect id="Rectangle_457" data-name="Rectangle 457" width="22.59" height="11.912" transform="translate(0.004 0.009)" fill="#00247d"/>
    <rect id="Rectangle_458" data-name="Rectangle 458" width="11.346" height="6.065" transform="translate(0 0)" fill="#fff"/>
    <path id="Path_352" data-name="Path 352" d="M5.4.083V2.509H.418V3.721H5.4V6.147H6.764V3.721h5V2.509h-5V.083Z" transform="translate(-0.413 -0.082)" fill="#ce1124"/>
    <path id="Path_353" data-name="Path 353" d="M.009,63.571H2.484L.009,62.251Z" transform="translate(-0.009 -61.544)" fill="#00247d"/>
    <path id="Path_354" data-name="Path 354" d="M117.1.028l-.036,0,3.209,1.721V.028Z" transform="translate(-115.739 -0.028)" fill="#00247d"/>
    <path id="Path_355" data-name="Path 355" d="M.009.531l2.9,1.543h.908L.009.055Z" transform="translate(-0.009 -0.055)" fill="#ce1124"/>
    <path id="Path_356" data-name="Path 356" d="M664.154,356.4l3.808,2.018v-.476l-2.9-1.543Z" transform="translate(-656.613 -352.35)" fill="#ce1124"/>
    <path id="Path_357" data-name="Path 357" d="M.009,356.557v1.32l2.475-1.32Z" transform="translate(-0.009 -352.509)" fill="#00247d"/>
    <path id="Path_358" data-name="Path 358" d="M117.1,385.057l-.036,0,3.209-1.721v1.723Z" transform="translate(-115.739 -378.982)" fill="#00247d"/>
    <path id="Path_359" data-name="Path 359" d="M4.016,356.384.23,358.4h.886l3.654-1.936v-.082Z" transform="translate(-0.227 -352.338)" fill="#ce1124"/>
    <path id="Path_360" data-name="Path 360" d="M784.1,62.224v1.32h-2.475Z" transform="translate(-772.747 -61.517)" fill="#00247d"/>
    <path id="Path_361" data-name="Path 361" d="M599.9,0V1.723L603.113,0l-.036,0Z" transform="translate(-593.093)" fill="#00247d"/>
    <path id="Path_362" data-name="Path 362" d="M600.191,2.195v.068h.778L604.722.245h-.852Z" transform="translate(-593.377 -0.242)" fill="#ce1124"/>
    <path id="Path_363" data-name="Path 363" d="M784.1,357.831V356.51h-2.475Z" transform="translate(-772.747 -352.463)" fill="#00247d"/>
    <path id="Path_364" data-name="Path 364" d="M603.077,385.014l.036,0-3.209-1.721v1.723Z" transform="translate(-593.093 -378.939)" fill="#00247d"/>
    <path id="Path_365" data-name="Path 365" d="M350.435,628.511l-.33,1.074-1.022-.422.6.973-.932.607,1.086.068-.154,1.175.761-.86.751.877-.149-1.186,1.07-.09-.921-.59.6-.961-1.012.416Z" transform="translate(-344.792 -621.375)" fill="#fff"/>
    <path id="Path_366" data-name="Path 366" d="M1176.253,386.877l-.153.5-.473-.195.278.45-.431.281.5.031-.071.543.352-.4.347.405-.069-.548.495-.042-.426-.273.278-.444-.468.192Z" transform="translate(-1162.129 -382.485)" fill="#fff"/>
    <path id="Path_367" data-name="Path 367" d="M1426.925,102.882l-.153.5-.473-.195.278.45-.431.281.5.031-.071.543.352-.4.347.405-.069-.548.495-.042-.426-.273.278-.444-.468.192Z" transform="translate(-1409.955 -101.714)" fill="#fff"/>
    <path id="Path_368" data-name="Path 368" d="M1646.059,316.755l-.152.5-.473-.195.278.45-.431.281.5.031-.071.543.352-.4.347.405-.069-.548.495-.042-.426-.273.278-.444-.468.192Z" transform="translate(-1626.601 -313.158)" fill="#fff"/>
    <path id="Path_369" data-name="Path 369" d="M1426.925,800.6l-.153.5-.473-.2.278.45-.431.281.5.031-.071.543.352-.4.347.406-.069-.548.495-.042-.426-.273.278-.444-.468.192Z" transform="translate(-1409.955 -791.507)" fill="#fff"/>
    <path id="Path_370" data-name="Path 370" d="M1548.536,512.412l.128.416h.414l-.335.257.128.416-.335-.257-.335.257.128-.416-.335-.257h.414Z" transform="translate(-1530.418 -506.595)" fill="#fff"/>
  </g>
</svg>
