<svg xmlns="http://www.w3.org/2000/svg" xmlns:xlink="http://www.w3.org/1999/xlink" width="52" height="65.923" viewBox="0 0 52 65.923">
  <defs>
    <clipPath id="clip-path">
      <rect id="Rectangle_101" data-name="Rectangle 101" width="22.83" height="24.347"/>
    </clipPath>
  </defs>
  <g id="members" transform="translate(-128.157 -810.14)">
    <ellipse id="Ellipse_184" data-name="Ellipse 184" cx="26" cy="26" rx="26" ry="26" transform="translate(128.157 810.14)" fill="#e2ff00"/>
    <path id="Path_347" data-name="Path 347" d="M-14.175,0l-.009-6.3h-.963L-17.6-2.124l-2.5-4.176h-.963V0h1.116V-4.122l2.07,3.4h.522l2.07-3.456L-15.282,0Zm6.111-2.376a2.344,2.344,0,0,0-2.43-2.484A2.39,2.39,0,0,0-12.978-2.4,2.44,2.44,0,0,0-10.323.063,2.436,2.436,0,0,0-8.388-.72l-.6-.693A1.722,1.722,0,0,1-10.3-.891a1.455,1.455,0,0,1-1.557-1.152h3.771C-8.073-2.151-8.064-2.286-8.064-2.376Zm-2.43-1.584A1.308,1.308,0,0,1-9.135-2.79h-2.727A1.328,1.328,0,0,1-10.494-3.96Zm9.576-.9a2.243,2.243,0,0,0-1.8.8,1.8,1.8,0,0,0-1.62-.8,1.991,1.991,0,0,0-1.575.666v-.612H-6.984V0h1.125V-2.439c0-.954.5-1.44,1.251-1.44.684,0,1.08.414,1.08,1.269V0H-2.4V-2.439c0-.954.513-1.44,1.251-1.44.684,0,1.08.414,1.08,1.269V0H1.053V-2.754A1.849,1.849,0,0,0-.918-4.86Zm6.075,0a2,2,0,0,0-1.539.639V-6.678H2.493V0H3.564V-.621A1.982,1.982,0,0,0,5.157.063,2.341,2.341,0,0,0,7.6-2.4,2.334,2.334,0,0,0,5.157-4.86ZM5.031-.9A1.4,1.4,0,0,1,3.6-2.4a1.4,1.4,0,0,1,1.431-1.5A1.4,1.4,0,0,1,6.453-2.4,1.4,1.4,0,0,1,5.031-.9Zm8.154-1.476a2.344,2.344,0,0,0-2.43-2.484A2.39,2.39,0,0,0,8.271-2.4,2.44,2.44,0,0,0,10.926.063,2.436,2.436,0,0,0,12.861-.72l-.6-.693a1.722,1.722,0,0,1-1.305.522A1.455,1.455,0,0,1,9.4-2.043h3.771C13.176-2.151,13.185-2.286,13.185-2.376ZM10.755-3.96a1.308,1.308,0,0,1,1.359,1.17H9.387A1.328,1.328,0,0,1,10.755-3.96ZM15.336-4.1v-.7H14.265V0H15.39V-2.331a1.31,1.31,0,0,1,1.395-1.485,1.428,1.428,0,0,1,.261.027V-4.86A1.891,1.891,0,0,0,15.336-4.1ZM19.5.063c1.35,0,2.178-.585,2.178-1.485,0-1.881-2.97-1.017-2.97-1.989,0-.315.324-.54,1.008-.54a2.631,2.631,0,0,1,1.377.36l.432-.855a3.825,3.825,0,0,0-1.8-.414c-1.3,0-2.115.594-2.115,1.5,0,1.917,2.97,1.053,2.97,1.971,0,.333-.3.531-1.008.531A3.234,3.234,0,0,1,17.9-1.332l-.432.855A3.818,3.818,0,0,0,19.5.063Z" transform="translate(154 876)" fill="#e7fe55"/>
    <g id="Group_320" data-name="Group 320" transform="translate(143 823.966)">
      <g id="Group_36" data-name="Group 36" transform="translate(0 0)" clip-path="url(#clip-path)">
        <path id="Path_117" data-name="Path 117" d="M6.785,14.507h0A4.662,4.662,0,1,0,2.123,9.845a4.662,4.662,0,0,0,4.666,4.662" transform="translate(0.208 0.508)"/>
        <path id="Path_118" data-name="Path 118" d="M11.945,13.97a.9.9,0,0,0-.211-.155,6.778,6.778,0,0,1-9.523.03.9.9,0,0,0-.2.146A7.989,7.989,0,0,0,0,19.371c0,2.063,3.006,3.623,6.993,3.623s6.993-1.555,6.993-3.623a7.969,7.969,0,0,0-2.041-5.4" transform="translate(0 1.354)"/>
        <path id="Path_119" data-name="Path 119" d="M14.84,9.324h0a4.662,4.662,0,1,0-4.666-4.662,4.662,4.662,0,0,0,4.666,4.662" transform="translate(0.997 0)"/>
        <path id="Path_120" data-name="Path 120" d="M19.755,8.787a.9.9,0,0,0-.211-.155,6.75,6.75,0,0,1-1.365,1.045,6.669,6.669,0,0,1-6.494.169,5.7,5.7,0,0,1-1.132,3.1l.722.442a1.946,1.946,0,0,1,.445.348l.008.01a9.024,9.024,0,0,1,2.084,4.03c.324.022.652.037.991.037,3.987,0,6.993-1.555,6.993-3.623a7.969,7.969,0,0,0-2.041-5.4" transform="translate(1.034 0.846)"/>
      </g>
    </g>
  </g>
</svg>
