<svg xmlns="http://www.w3.org/2000/svg" xmlns:xlink="http://www.w3.org/1999/xlink" width="52" height="67.809" viewBox="0 0 52 67.809">
  <defs>
    <clipPath id="clip-path">
      <rect id="Rectangle_102" data-name="Rectangle 102" width="27.103" height="24.591"/>
    </clipPath>
  </defs>
  <g id="setting" transform="translate(-336 -810)">
    <ellipse id="Ellipse_164" data-name="Ellipse 164" cx="26" cy="26" rx="26" ry="26" transform="translate(336 810)" fill="#e2ff00"/>
    <path id="Path_350" data-name="Path 350" d="M-16.434.09c1.728,0,2.547-.864,2.547-1.872,0-2.313-3.735-1.44-3.735-2.781,0-.477.4-.855,1.368-.855a3.5,3.5,0,0,1,1.737.5l.369-.909a3.983,3.983,0,0,0-2.1-.558c-1.728,0-2.538.864-2.538,1.881,0,2.34,3.744,1.449,3.744,2.808,0,.468-.414.819-1.4.819a3.491,3.491,0,0,1-2.079-.693l-.4.909A4.059,4.059,0,0,0-16.434.09Zm8.118-2.466a2.344,2.344,0,0,0-2.43-2.484A2.39,2.39,0,0,0-13.23-2.4,2.44,2.44,0,0,0-10.575.063,2.436,2.436,0,0,0-8.64-.72l-.6-.693a1.722,1.722,0,0,1-1.305.522A1.455,1.455,0,0,1-12.1-2.043h3.771C-8.325-2.151-8.316-2.286-8.316-2.376Zm-2.43-1.584A1.308,1.308,0,0,1-9.387-2.79h-2.727A1.328,1.328,0,0,1-10.746-3.96Zm6.084,2.9a1.012,1.012,0,0,1-.63.2c-.432,0-.666-.252-.666-.72V-3.87h1.287v-.9H-5.958v-1.1H-7.083v1.1h-.792v.9h.792v2.313A1.477,1.477,0,0,0-5.427.063a1.768,1.768,0,0,0,1.08-.324Zm3.7,0a1.012,1.012,0,0,1-.63.2c-.432,0-.666-.252-.666-.72V-3.87H-.972v-.9H-2.259v-1.1H-3.384v1.1h-.792v.9h.792v2.313A1.477,1.477,0,0,0-1.728.063,1.768,1.768,0,0,0-.648-.261ZM.846-5.6a.691.691,0,0,0,.72-.7.67.67,0,0,0-.72-.648.685.685,0,0,0-.72.675A.685.685,0,0,0,.846-5.6ZM.279,0H1.4V-4.806H.279ZM5.607-4.86a2.09,2.09,0,0,0-1.656.675v-.621H2.88V0H4.005V-2.43A1.276,1.276,0,0,1,5.346-3.879c.72,0,1.143.414,1.143,1.269V0H7.614V-2.754A1.878,1.878,0,0,0,5.607-4.86Zm7.182.054v.639a2.081,2.081,0,0,0-1.665-.693,2.282,2.282,0,0,0-2.43,2.313,2.3,2.3,0,0,0,2.43,2.331,2.116,2.116,0,0,0,1.611-.639V-.6c0,.972-.468,1.458-1.53,1.458A2.9,2.9,0,0,1,9.432.279l-.5.846a3.82,3.82,0,0,0,2.34.684A2.264,2.264,0,0,0,13.86-.729V-4.806ZM11.3-1.17A1.363,1.363,0,0,1,9.828-2.547,1.354,1.354,0,0,1,11.3-3.906a1.351,1.351,0,0,1,1.458,1.359A1.36,1.36,0,0,1,11.3-1.17ZM16.821.063C18.171.063,19-.522,19-1.422c0-1.881-2.97-1.017-2.97-1.989,0-.315.324-.54,1.008-.54a2.631,2.631,0,0,1,1.377.36l.432-.855a3.825,3.825,0,0,0-1.8-.414c-1.3,0-2.115.594-2.115,1.5,0,1.917,2.97,1.053,2.97,1.971,0,.333-.3.531-1.008.531a3.234,3.234,0,0,1-1.674-.477l-.432.855A3.818,3.818,0,0,0,16.821.063Z" transform="translate(362 876)" fill="#e7fe55"/>
    <g id="Group_303" data-name="Group 303" transform="translate(349 824)">
      <g id="Group_38" data-name="Group 38" transform="translate(0 0)" clip-path="url(#clip-path)">
        <path id="Path_121" data-name="Path 121" d="M26.62,10.331,21.785,1.959A4.276,4.276,0,0,0,18.386,0H8.718a4.276,4.276,0,0,0-3.4,1.959L.484,10.331a4.22,4.22,0,0,0,0,3.925l4.835,8.37a4.275,4.275,0,0,0,3.4,1.965h9.669a4.274,4.274,0,0,0,3.4-1.965l4.831-8.37a4.22,4.22,0,0,0,0-3.925M13.552,17.495h0a5.2,5.2,0,1,1,5.2-5.2,5.2,5.2,0,0,1-5.2,5.2" transform="translate(0 0)"/>
        <path id="Path_122" data-name="Path 122" d="M12.731,8.131a3.442,3.442,0,1,0,3.446,3.443,3.442,3.442,0,0,0-3.446-3.443Z" transform="translate(0.823 0.72)"/>
      </g>
    </g>
  </g>
</svg>
